<svg width="1000" height="1000" viewBox="0 0 1000 1000" fill="none" xmlns="http://www.w3.org/2000/svg">
<g clip-path="url(#clip0_33_124)">
<path d="M887.753 67.1488C960.353 59.7047 1016.2 121.118 995.72 184.393C986.415 212.309 965.938 234.641 941.738 255.112C928.707 264.418 913.814 275.584 897.06 283.028C852.383 309.082 815.152 340.72 785.366 379.801C736.966 441.215 686.704 504.491 640.165 569.627C567.564 671.983 496.825 776.201 439.117 887.862C433.532 897.168 427.947 908.334 418.639 917.638C392.578 945.554 351.623 941.832 331.146 910.195C323.7 897.168 318.115 884.14 316.254 871.113C306.946 824.587 297.638 778.062 290.191 733.397C280.884 686.871 273.438 640.346 267.853 593.819C264.13 571.488 260.407 549.155 258.545 526.823C256.684 500.769 262.268 478.436 273.438 454.242C282.746 437.493 295.776 420.744 314.392 409.578C368.377 379.801 433.532 403.995 442.84 461.687C446.563 480.297 442.84 500.769 439.117 519.378C433.532 541.711 424.224 564.044 416.777 584.514C405.609 619.874 398.163 655.233 398.163 692.454C398.163 701.76 396.301 711.064 409.331 716.647C414.916 714.786 420.501 711.064 422.362 707.343C429.809 696.177 437.255 686.871 442.84 675.705C511.718 547.294 591.764 424.467 677.396 305.36C709.042 262.557 736.966 216.031 763.028 169.505C776.059 145.312 792.813 124.841 809.567 104.369C830.044 83.898 856.106 70.8708 887.753 67.1488Z" fill="white"/>
<path d="M443.451 167.481C551.365 133.963 551.365 221.481 508.572 281.068C480.662 320.172 426.705 340.655 404.378 325.758C382.051 307.137 354.142 297.826 326.233 305.275C186.688 338.793 171.803 476.587 177.385 530.588C179.246 551.071 181.106 571.553 179.246 592.037C177.385 618.105 171.803 642.313 156.919 664.658C117.846 718.659 43.4223 713.072 11.7922 655.348C0.628577 633.002 -1.23202 608.796 0.628577 584.588C4.34977 551.071 17.374 521.277 37.8405 493.346C60.1677 461.69 75.0524 426.311 89.9372 389.069C104.822 353.689 110.404 318.31 106.682 279.206C102.961 256.861 102.961 234.516 101.101 212.171C101.101 182.378 104.822 152.584 121.567 124.653C129.01 109.756 140.174 94.8592 155.059 83.6868C209.016 42.7208 281.579 70.6521 292.743 137.687C296.464 156.308 292.743 176.791 292.743 195.412C290.882 206.584 283.439 219.619 292.743 232.654C313.209 234.516 326.233 223.343 341.118 215.895C374.609 199.136 406.238 178.654 443.451 167.481Z" fill="white"/>
</g>
<defs>
<clipPath id="clip0_33_124">
<rect width="1000" height="1000" fill="white"/>
</clipPath>
</defs>
</svg>
